<svg width="18" height="18" viewBox="0 0 18 18" fill="none" xmlns="http://www.w3.org/2000/svg">
<path d="M0.461558 2.68883C-0.153536 2.07373 -0.153535 1.07646 0.461558 0.461356C1.07665 -0.153744 2.07392 -0.153744 2.68901 0.461356L17.5387 15.3112C18.1538 15.9263 18.1538 16.9236 17.5387 17.5387C16.9236 18.1538 15.9263 18.1538 15.3112 17.5387L0.461558 2.68883Z" fill="white"/>
<path d="M2.68877 17.5386C2.07368 18.1537 1.07641 18.1537 0.46132 17.5386C-0.153773 16.9235 -0.153773 15.9263 0.46132 15.3112L15.311 0.461325C15.9261 -0.153775 16.9233 -0.153775 17.5384 0.461325C18.1535 1.07643 18.1535 2.0737 17.5384 2.6888L2.68877 17.5386Z" fill="white"/>
</svg>
