<svg width="28" height="28" viewBox="0 0 28 28" fill="none" xmlns="http://www.w3.org/2000/svg">
<path d="M0.717979 4.18263C-0.238833 3.22581 -0.238833 1.67449 0.717979 0.717665C1.67479 -0.239158 3.22609 -0.239158 4.1829 0.717665L27.2824 23.8174C28.2392 24.7742 28.2392 26.3256 27.2824 27.2824C26.3256 28.2392 24.7743 28.2392 23.8175 27.2824L0.717979 4.18263Z" fill="white"/>
<path d="M4.18253 27.2823C3.22572 28.2392 1.67442 28.2392 0.717609 27.2823C-0.239203 26.3255 -0.239203 24.7742 0.717609 23.8174L23.8171 0.717617C24.7739 -0.239206 26.3252 -0.239206 27.282 0.717617C28.2388 1.67444 28.2388 3.22576 27.282 4.18258L4.18253 27.2823Z" fill="white"/>
</svg>
