<svg width="28" height="28" viewBox="0 0 28 28" fill="none" xmlns="http://www.w3.org/2000/svg">
<path fill-rule="evenodd" clip-rule="evenodd" d="M13.6227 1.59902C12.1616 1.90931 11.6371 3.6971 12.7355 4.62311L12.9749 4.82496L10.6072 8.59021C9.30488 10.6611 8.21077 12.3858 8.17572 12.4228C8.12497 12.4765 7.6619 12.2381 5.89688 11.2495L3.68171 10.0086L3.68319 9.47768C3.68948 7.20628 0.255799 7.01172 0.00940172 9.26954C-0.0929901 10.208 0.653047 11.0836 1.65736 11.2038L1.93596 11.2372L3.17074 15.5197L4.40552 19.8022H14.006H23.6064L24.8412 15.5197L26.076 11.2372L26.3546 11.2038C28.2091 10.982 28.6244 8.57264 26.9363 7.82981C25.6144 7.24818 24.1824 8.23859 24.3184 9.64051L24.3532 9.99842L22.1243 11.2456C20.0551 12.4034 19.8902 12.4859 19.8223 12.3979C19.7821 12.3457 18.6897 10.6198 17.3948 8.56257L15.0404 4.82207L15.2782 4.62164C16.6544 3.46143 15.4248 1.21635 13.6227 1.59902ZM4.71647 21.9278C3.22144 22.214 2.99771 24.1639 4.39062 24.7678L4.67026 24.889H14.006H23.3417L23.6213 24.7678C24.8636 24.2292 24.8636 22.5596 23.6213 22.0211L23.3417 21.8998L14.1429 21.892C9.08351 21.8877 4.84164 21.9038 4.71647 21.9278Z" fill="white"/>
</svg>
